<svg xmlns="http://www.w3.org/2000/svg" height="24" viewBox="0 -960 960 960" width="24"><path d="M398.654-544.462 480-585.077l81.731 40.615v-213.076H398.654v213.076ZM281.731-301.731v-36.923h196.923v36.923H281.731Zm-54.836 136.193q-25.756 0-43.556-17.801-17.801-17.8-17.801-43.556v-506.21q0-25.756 17.801-43.556 17.8-17.801 43.556-17.801h506.21q25.756 0 43.556 17.801 17.801 17.8 17.801 43.556v506.21q0 25.756-17.801 43.556-17.8 17.801-43.556 17.801h-506.21Zm-24.433-592v555.076-555.076Zm24.615 555.076h505.846q9.231 0 16.923-7.692 7.692-7.692 7.692-16.923v-505.846q0-9.231-7.692-16.923-7.692-7.692-16.923-7.692H598.654V-484L480-543.385 361.731-484v-273.538H227.077q-9.231 0-16.923 7.692-7.692 7.692-7.692 16.923v505.846q0 9.231 7.692 16.923 7.692 7.692 16.923 7.692Z"/></svg>